<svg width="20" height="20" viewBox="0 0 20 20" fill="none" xmlns="http://www.w3.org/2000/svg">
<path d="M18.9471 6.30499C18.937 5.54761 18.7952 4.79776 18.5281 4.08899C18.2964 3.49114 17.9426 2.94819 17.4892 2.49482C17.0359 2.04145 16.4929 1.68764 15.8951 1.45599C15.1954 1.19334 14.4562 1.05133 13.7091 1.03599C12.7471 0.992988 12.4421 0.980988 10.0001 0.980988C7.55807 0.980988 7.24507 0.980988 6.29007 1.03599C5.54323 1.05144 4.80442 1.19346 4.10507 1.45599C3.50713 1.68748 2.96409 2.04123 2.5107 2.49462C2.05732 2.94801 1.70356 3.49105 1.47207 4.08899C1.2089 4.78812 1.06719 5.5271 1.05307 6.27399C1.01007 7.23699 0.99707 7.54199 0.99707 9.98399C0.99707 12.426 0.99707 12.738 1.05307 13.694C1.06807 14.442 1.20907 15.18 1.47207 15.881C1.70395 16.4787 2.05797 17.0216 2.51151 17.4748C2.96505 17.928 3.50813 18.2816 4.10607 18.513C4.8035 18.7862 5.54244 18.9384 6.29107 18.963C7.25407 19.006 7.55907 19.019 10.0011 19.019C12.4431 19.019 12.7561 19.019 13.7111 18.963C14.4582 18.9483 15.1974 18.8066 15.8971 18.544C16.4948 18.3121 17.0376 17.9582 17.4909 17.5048C17.9442 17.0515 18.2982 16.5087 18.5301 15.911C18.7931 15.211 18.9341 14.473 18.9491 13.724C18.9921 12.762 19.0051 12.457 19.0051 10.014C19.0031 7.57199 19.0031 7.26199 18.9471 6.30499ZM9.99407 14.602C7.44007 14.602 5.37107 12.533 5.37107 9.97899C5.37107 7.42499 7.44007 5.35599 9.99407 5.35599C11.2202 5.35599 12.396 5.84305 13.263 6.71003C14.13 7.57701 14.6171 8.75289 14.6171 9.97899C14.6171 11.2051 14.13 12.381 13.263 13.2479C12.396 14.1149 11.2202 14.602 9.99407 14.602ZM14.8011 6.26299C14.6595 6.26312 14.5192 6.23533 14.3884 6.1812C14.2575 6.12707 14.1386 6.04767 14.0385 5.94754C13.9384 5.84741 13.859 5.72852 13.8049 5.59768C13.7507 5.46683 13.7229 5.32659 13.7231 5.18499C13.7231 5.04349 13.7509 4.90337 13.8051 4.77265C13.8592 4.64192 13.9386 4.52314 14.0387 4.42308C14.1387 4.32302 14.2575 4.24366 14.3882 4.18951C14.519 4.13536 14.6591 4.10749 14.8006 4.10749C14.9421 4.10749 15.0822 4.13536 15.2129 4.18951C15.3436 4.24366 15.4624 4.32302 15.5625 4.42308C15.6625 4.52314 15.7419 4.64192 15.7961 4.77265C15.8502 4.90337 15.8781 5.04349 15.8781 5.18499C15.8781 5.78099 15.3961 6.26299 14.8011 6.26299Z" fill="black"/>
</svg>
