<svg width="32" height="32" viewBox="0 0 32 32" fill="none" xmlns="http://www.w3.org/2000/svg">
<path d="M29.4819 8.62383L19.4819 3.12383C19.3343 3.0426 19.1685 3 18.9999 3C18.8314 3 18.6656 3.0426 18.5179 3.12383L8.51793 8.62383C8.36115 8.71015 8.2304 8.83698 8.13934 8.99106C8.04828 9.14515 8.00024 9.32085 8.00024 9.49983C8.00024 9.67881 8.04828 9.85451 8.13934 10.0086C8.2304 10.1627 8.36115 10.2895 8.51793 10.3758L17.9999 15.5908V26.3098L14.9639 24.6398L13.9999 26.3908L18.5179 28.8758C18.6655 28.9572 18.8314 28.9999 18.9999 28.9999C19.1685 28.9999 19.3343 28.9572 19.4819 28.8758L29.4819 23.3758C29.6388 23.2895 29.7696 23.1627 29.8607 23.0087C29.9518 22.8546 29.9999 22.6788 29.9999 22.4998V9.49983C29.9999 9.32082 29.9518 9.1451 29.8607 8.99101C29.7696 8.83692 29.6388 8.71011 29.4819 8.62383ZM18.9999 5.14183L26.9249 9.49983L18.9999 13.8578L11.0749 9.49983L18.9999 5.14183ZM27.9999 21.9088L19.9999 26.3088V15.5898L27.9999 11.1898V21.9088Z" fill="#333333"/>
<path d="M10 16H2V14H10V16Z" fill="#333333"/>
<path d="M12 24H4V22H12V24Z" fill="#333333"/>
<path d="M14 20H6V18H14V20Z" fill="#333333"/>
</svg>
