<svg width="32" height="32" viewBox="0 0 32 32" fill="none" xmlns="http://www.w3.org/2000/svg">
<g clip-path="url(#clip0_328_258)">
<path d="M16.0027 32C19.1756 32.0065 22.279 31.0736 24.9203 29.3194C27.5616 27.5652 29.622 25.0686 30.8406 22.1455C32.0593 19.2225 32.3815 16.0044 31.7665 12.8986C31.1514 9.79273 29.6268 6.93877 27.3855 4.69787C25.1442 2.45698 22.2871 0.929894 19.1756 0.309891C16.0642 -0.310112 12.8384 0.00483696 9.90642 1.21488C6.97445 2.42492 4.46815 4.47566 2.70473 7.10754C0.941303 9.73943 2.12866e-05 12.8342 1.47372e-05 16C-0.00283939 18.0993 0.408898 20.1785 1.2117 22.1188C2.0145 24.0592 3.19263 25.8227 4.67876 27.3086C6.16489 28.7945 7.9299 29.9736 9.87291 30.7786C11.8159 31.5836 13.8989 31.9986 16.0027 32Z" fill="#C1C1C1"/>
<path d="M25.701 11.8605V20.1341C25.7246 20.2148 25.729 20.3 25.714 20.3827C25.6989 20.4655 25.6647 20.5436 25.6141 20.6109C25.5635 20.6782 25.498 20.7328 25.4226 20.7704C25.3472 20.808 25.264 20.8276 25.1797 20.8276C25.0954 20.8276 25.0123 20.808 24.9369 20.7704C24.8615 20.7328 24.7959 20.6782 24.7453 20.6109C24.6947 20.5436 24.6605 20.4655 24.6455 20.3827C24.6304 20.3 24.6348 20.2148 24.6584 20.1341V11.8605C24.6584 11.6285 24.6126 11.3988 24.5237 11.1845C24.4347 10.9702 24.3043 10.7755 24.1399 10.6115C23.9755 10.4474 23.7804 10.3173 23.5656 10.2286C23.3508 10.1398 23.1207 10.0941 22.8882 10.0941C22.6557 10.0941 22.4255 10.1398 22.2107 10.2286C21.996 10.3173 21.8008 10.4474 21.6364 10.6115C21.4721 10.7755 21.3417 10.9702 21.2527 11.1845C21.1637 11.3988 21.1179 11.6285 21.1179 11.8605V20.1341C21.1179 20.8799 20.821 21.5951 20.2925 22.1225C19.764 22.6499 19.0471 22.9461 18.2997 22.9461C17.5522 22.9461 16.8354 22.6499 16.3069 22.1225C15.7783 21.5951 15.4814 20.8799 15.4814 20.1341V11.8605C15.4814 11.392 15.2949 10.9427 14.9629 10.6115C14.631 10.2802 14.1807 10.0941 13.7112 10.0941C13.2417 10.0941 12.7914 10.2802 12.4594 10.6115C12.1275 10.9427 11.941 11.392 11.941 11.8605V20.1341C11.941 20.8799 11.644 21.5951 11.1155 22.1225C10.587 22.6499 9.87014 22.9461 9.12269 22.9461C8.37525 22.9461 7.65841 22.6499 7.12988 22.1225C6.60136 21.5951 6.30444 20.8799 6.30444 20.1341V11.8605C6.28083 11.7797 6.27639 11.6946 6.29147 11.6118C6.30655 11.5291 6.34074 11.4509 6.39132 11.3837C6.4419 11.3164 6.50749 11.2617 6.58289 11.2241C6.65829 11.1865 6.74143 11.1669 6.82573 11.1669C6.91003 11.1669 6.99318 11.1865 7.06858 11.2241C7.14398 11.2617 7.20957 11.3164 7.26015 11.3837C7.31073 11.4509 7.34491 11.5291 7.35999 11.6118C7.37507 11.6946 7.37063 11.7797 7.34703 11.8605V20.1341C7.34703 20.6025 7.53353 21.0518 7.86552 21.3831C8.1975 21.7143 8.64777 21.9004 9.11726 21.9004C9.58676 21.9004 10.037 21.7143 10.369 21.3831C10.701 21.0518 10.8875 20.6025 10.8875 20.1341V11.8605C10.8875 11.4912 10.9604 11.1255 11.102 10.7843C11.2437 10.4432 11.4513 10.1332 11.7129 9.87203C11.9746 9.61091 12.2853 9.40377 12.6273 9.26246C12.9692 9.12114 13.3357 9.0484 13.7058 9.0484C14.0759 9.0484 14.4423 9.12114 14.7843 9.26246C15.1262 9.40377 15.4369 9.61091 15.6986 9.87203C15.9603 10.1332 16.1679 10.4432 16.3095 10.7843C16.4511 11.1255 16.524 11.4912 16.524 11.8605V20.1341C16.524 20.6025 16.7105 21.0518 17.0425 21.3831C17.3745 21.7143 17.8248 21.9004 18.2943 21.9004C18.7637 21.9004 19.214 21.7143 19.546 21.3831C19.878 21.0518 20.0645 20.6025 20.0645 20.1341V11.8605C20.0645 11.1147 20.3614 10.3994 20.8899 9.87203C21.4185 9.34467 22.1353 9.0484 22.8827 9.0484C23.6302 9.0484 24.347 9.34467 24.8756 9.87203C25.4041 10.3994 25.701 11.1147 25.701 11.8605Z" fill="#00B934"/>
</g>
<defs>
<clipPath id="clip0_328_258">
<rect width="32" height="32" fill="white"/>
</clipPath>
</defs>
</svg>
