<svg width="11" height="12" viewBox="0 0 11 12" fill="none" xmlns="http://www.w3.org/2000/svg">
<path d="M10.5286 4.48272L7.30524 4.01427L5.86433 1.09308C5.82497 1.0131 5.76022 0.948351 5.68024 0.908995C5.47966 0.809972 5.23591 0.892491 5.13561 1.09308L3.6947 4.01427L0.471357 4.48272C0.38249 4.49542 0.30124 4.53731 0.239033 4.60079C0.163828 4.67809 0.122387 4.78208 0.123815 4.88992C0.125243 4.99775 0.169424 5.10061 0.24665 5.17589L2.57878 7.44962L2.0278 10.6603C2.01488 10.7349 2.02315 10.8118 2.05166 10.882C2.08017 10.9522 2.12779 11.0131 2.18912 11.0576C2.25045 11.1021 2.32303 11.1286 2.39863 11.134C2.47424 11.1394 2.54984 11.1235 2.61686 11.0881L5.49997 9.57227L8.38308 11.0881C8.46179 11.13 8.55319 11.144 8.64079 11.1287C8.86169 11.0906 9.01022 10.8812 8.97214 10.6603L8.42116 7.44962L10.7533 5.17589C10.8168 5.11368 10.8587 5.03243 10.8714 4.94356C10.9056 4.7214 10.7508 4.51573 10.5286 4.48272Z" fill="#00B934"/>
</svg>
