<svg width="36" height="36" viewBox="0 0 36 36" fill="none" xmlns="http://www.w3.org/2000/svg">
<rect width="36" height="36" fill="white"/>
<path d="M6 9H30L27.63 30.33C27.5488 31.0641 27.1996 31.7424 26.6494 32.235C26.0992 32.7277 25.3865 33.0001 24.648 33H11.352C10.6135 33.0001 9.90084 32.7277 9.35062 32.235C8.8004 31.7424 8.45124 31.0641 8.37 30.33L6 9Z" stroke="#C1C1C1" stroke-width="3.33333" stroke-linecap="round" stroke-linejoin="round"/>
<path d="M11.0175 4.7205C11.2601 4.20595 11.6441 3.771 12.1245 3.46637C12.605 3.16174 13.1621 2.99999 13.731 3H22.269C22.8381 2.99971 23.3956 3.16132 23.8764 3.46596C24.3571 3.77061 24.7413 4.20572 24.984 4.7205L27 9H9L11.0175 4.7205Z" stroke="#C1C1C1" stroke-width="3.33333" stroke-linecap="round" stroke-linejoin="round"/>
<path d="M3 9H33" stroke="#C1C1C1" stroke-width="3.33333" stroke-linecap="round" stroke-linejoin="round"/>
<path d="M15 16.5V24" stroke="#C1C1C1" stroke-width="3.33333" stroke-linecap="round" stroke-linejoin="round"/>
<path d="M21 16.5V24" stroke="#C1C1C1" stroke-width="3.33333" stroke-linecap="round" stroke-linejoin="round"/>
</svg>
