<svg width="35" height="26" viewBox="0 0 35 26" fill="none" xmlns="http://www.w3.org/2000/svg">
<path d="M19.7848 8.10018C19.7848 7.18918 18.9301 7.07818 18.1235 7.07818L15.7526 7.06218V10.9122H16.747V9.51818H17.8386C18.9541 9.51818 18.7184 10.0902 18.7358 10.9122H19.7422V10.1622C19.7422 9.65118 19.6516 9.32318 19.0753 9.14018C19.5239 8.97318 19.7914 8.54618 19.7848 8.10118V8.10018ZM18.0023 8.72818H16.747V7.87818H18.0209C18.3298 7.87818 18.6693 7.93418 18.6693 8.28918C18.6693 8.65617 18.3483 8.72818 18.0023 8.72818ZM16.9894 13.7002H13.7933L12.5195 14.9662L11.2762 13.7002H7.244L7.23745 17.5502H11.2041L12.4954 16.2722L13.7322 17.5502H15.685L15.6915 16.2562C16.8376 16.2562 18.6813 16.5112 18.6813 14.9622C18.6813 14.0012 17.9357 13.7012 16.9894 13.7012V13.7002ZM10.6944 16.7392H8.23295V15.9722H10.4335V15.1892H8.23295V14.4952H10.7621L11.8471 15.6172L10.6944 16.7392ZM14.6851 17.1942L13.1504 15.6332L14.6851 14.1112V17.1942ZM16.9773 15.4722H15.6915V14.4942H16.9948C17.3343 14.4942 17.6137 14.6222 17.6137 14.9612C17.6137 15.3162 17.3343 15.4722 16.9773 15.4722ZM15.0606 7.87818V7.06718H11.6953V10.9172H15.0606V10.1232H12.7017V9.35618H14.994V8.57318H12.7017V7.87918L15.0606 7.87818ZM34.9999 12.9672H34.9879H34.9999ZM23.1992 14.7392C23.1992 13.8282 22.3445 13.7002 21.5564 13.7002H19.167L19.1615 17.5502H20.1679L20.1745 16.1452H21.242C21.909 16.1452 22.1393 16.2562 22.1393 16.9112L22.1338 17.5502H23.1402L23.1468 16.7842C23.1468 16.2892 23.0376 15.9452 22.4799 15.7622C22.947 15.5902 23.1959 15.1622 23.2014 14.7402L23.1992 14.7392ZM21.4287 15.3612H20.1734V14.4942H21.4472C21.7562 14.4942 22.0956 14.5502 22.0956 14.9052C22.0956 15.2882 21.7682 15.3612 21.4287 15.3612ZM10.9498 10.9172V7.06718H9.27647L8.08231 9.67818L6.76591 7.06718H5.12312V10.7172L3.41922 7.06718H1.93362L0.132561 10.9172H1.21756L1.60615 10.0672H3.69865L4.08615 10.9172H6.13608V7.90618L7.59112 10.9172H8.47636L9.9314 7.90618V10.9172H10.9498ZM1.962 9.26718L2.64094 7.73418L3.33844 9.26718H1.962ZM30.9132 18.0942V17.8442C30.2582 18.1552 30.6763 18.0942 21.4101 18.0942C21.4101 16.6942 21.4167 16.7662 21.4101 16.6942C21.3075 16.6882 21.2158 16.6882 20.8403 16.6882C20.8403 17.6832 20.8338 17.0662 20.8338 18.0942H18.4324C18.4324 17.4222 18.4378 17.2442 18.4378 16.4722C17.8309 16.8052 17.0559 16.8272 16.3584 16.8162C16.3584 17.6332 16.3519 17.2772 16.3519 18.0942H13.3862C13.0772 17.7772 13.2224 17.9222 12.4518 17.1272C12.2575 17.3212 11.6757 17.8992 11.4759 18.0942H6.50284V12.9662H11.5425C11.846 13.2772 11.7128 13.1382 12.4823 13.9222C12.6766 13.7282 13.2224 13.1772 13.4342 12.9662H16.9512C17.546 12.9662 18.0427 13.0722 18.4247 13.2772V12.9662C21.7179 12.9662 22.3238 12.8882 23.0158 13.2492V12.9662H27.7586V13.2552C28.4495 12.8722 28.9473 12.9662 31.6936 12.9662V13.2442C32.318 12.9162 32.7 12.9552 34.9868 12.9662V3.22218C34.9865 2.51492 34.6797 1.83672 34.1338 1.33661C33.588 0.836513 32.8477 0.555441 32.0757 0.555176H2.96731C2.19531 0.555441 1.45502 0.836513 0.909131 1.33661C0.363245 1.83672 0.0564416 2.51492 0.0561523 3.22218V9.32218L1.45661 6.32718H3.86457C4.12545 6.88818 3.96172 6.53317 4.41034 7.49918V6.32718H7.20034C7.37608 6.67217 7.87383 7.66018 8.04302 7.99418C8.3945 7.23918 8.65538 6.66617 8.8071 6.32718H15.0529C15.0529 6.32218 15.7504 6.32718 15.7559 6.32718C18.4062 6.33818 19.0065 6.28318 19.6615 6.62118V6.32718H22.0814V6.84418C22.5421 6.50518 23.1664 6.32718 23.9436 6.32718H25.617C25.617 6.35518 25.7316 6.34418 25.7567 6.34418H27.7215C27.9758 6.88818 27.8797 6.67718 28.2552 7.48918V6.34418H30.8815C31.1784 6.78818 30.8204 6.24418 31.5604 7.36618V6.34418H33.9804V11.4552H31.4578C31.1304 10.9552 31.3727 11.3332 30.6566 10.2382V11.4552H27.4551C27.0665 10.6332 27.4486 11.4382 27.0545 10.6052H25.9019C25.6475 11.1612 25.7687 10.8942 25.5144 11.4552H23.889C23.1435 11.4552 22.5366 11.2882 22.088 10.9612V11.4552H18.0558C18.0372 10.6832 18.0493 10.0772 18.0493 10.0772C17.9401 10.0612 17.8429 10.0662 17.4554 10.0662V11.4612H9.23826V10.8282C9.08654 11.1392 9.07453 11.1562 8.92936 11.4612H7.14031C6.89798 10.9662 6.96457 11.1052 6.8314 10.8282V11.4612H3.62334C3.36791 10.9002 3.49017 11.1672 3.23474 10.6112H2.07006C1.81573 11.1672 1.93689 10.9002 1.68256 11.4612H0.0692509V22.7782C0.0695402 23.4854 0.376344 24.1636 0.92223 24.6637C1.46812 25.1638 2.20841 25.4449 2.98041 25.4452H32.0942C32.8662 25.4449 33.6065 25.1638 34.1524 24.6637C34.6983 24.1636 35.0051 23.4854 35.0054 22.7782V17.7562C34.2347 18.2172 33.022 18.0952 30.9121 18.0952L30.9132 18.0942ZM33.1137 14.5112H34.9388V13.7002H32.9434C32.1673 13.7002 31.5004 14.0662 31.5004 14.8502C31.5004 16.6832 34.0896 15.5612 34.0896 16.3722C34.0896 16.6552 33.8287 16.7282 33.5798 16.7282H31.639L31.6325 17.5502H33.5733C34.083 17.5502 34.6408 17.4502 34.9377 17.0562V15.6232C34.3013 14.8562 32.5549 15.5512 32.5549 14.8732C32.5549 14.5512 32.8343 14.5122 33.1126 14.5122L33.1137 14.5112ZM29.6568 16.7222H27.704L27.6985 17.5442H29.6513C30.5486 17.5442 31.2406 17.2332 31.2406 16.3222C31.2406 14.4782 28.6395 15.7002 28.6395 14.8612C28.6395 14.5502 28.9364 14.5062 29.1972 14.5062H31.0409V13.6952H29.0281C28.252 13.6952 27.6025 14.0622 27.6025 14.8452C27.6025 16.6782 30.1916 15.5392 30.1916 16.3672C30.1862 16.6672 29.9068 16.7222 29.6579 16.7222H29.6568ZM27.0982 14.4942V13.7002H23.7504L23.7439 17.5502H27.0916L27.0971 16.7562L24.7568 16.7392V15.9722H27.0545V15.1892H24.7623V14.4952L27.0982 14.4942ZM23.6838 8.48918C23.6664 8.50018 23.5987 8.61118 23.5987 8.91118C23.5987 9.24418 23.6533 9.33918 23.6653 9.35018C23.6773 9.35518 23.7319 9.37818 23.8716 9.37818L24.3147 8.43918C24.2482 8.43918 24.187 8.43418 24.127 8.43418C23.7875 8.43418 23.7024 8.47318 23.6838 8.49018V8.48918ZM24.9216 7.90618H24.9151H24.9216ZM23.9393 7.06118C22.5137 7.06118 21.8773 7.72818 21.8773 9.02218C21.8773 10.2562 22.4962 10.9112 23.8781 10.9112H25.0428L25.4303 10.0612H27.5108L27.9114 10.9112H29.9548V8.02818L31.8464 10.9112H33.2775V7.07818H32.2525V9.75018L30.4885 7.07818H28.9538V10.7112L27.2619 7.07818H25.7578L24.3322 10.1062H23.8836C23.0769 10.1062 22.9077 9.65618 22.9077 9.00118C22.9077 7.67918 23.8596 7.89017 24.9151 7.90718V7.06318L23.9393 7.06118ZM26.4924 7.73318L27.1713 9.26618H25.7894L26.4924 7.73318ZM20.3612 7.06718V10.9172H21.3861V7.06718H20.3612Z" fill="#333333"/>
</svg>
