<svg width="36" height="21" viewBox="0 0 36 21" fill="none" xmlns="http://www.w3.org/2000/svg">
<path d="M2.16046 0.240267C1.26312 0.240267 0.535156 0.906827 0.535156 1.72926V18.8473C0.535156 19.6696 1.26323 20.3363 2.16046 20.3363H33.8395C34.7368 20.3363 35.4648 19.6697 35.4648 18.8473V1.72923C35.4648 0.906923 34.7367 0.240234 33.8395 0.240234H2.16043L2.16046 0.240267ZM11.9888 2.65927C13.9826 2.65927 15.8137 3.29476 17.2511 4.35627C16.0418 5.34759 15.1398 6.65003 14.6947 8.12628H15.3922C15.803 6.90843 16.5492 5.82414 17.5328 4.96427C18.5163 5.82414 19.2625 6.90843 19.6733 8.12628H20.3817C19.9305 6.6578 19.0272 5.36315 17.8188 4.37828C19.2589 3.30331 21.0973 2.65924 23.0997 2.65924C27.7205 2.65924 31.4664 6.09131 31.4664 10.3253C31.4664 14.5592 27.7205 17.9913 23.0997 17.9913C21.064 17.9913 19.1973 17.3256 17.7467 16.2183C19.0443 15.184 20.001 13.7975 20.4385 12.2203H19.7562C19.3678 13.5441 18.5859 14.7215 17.5327 15.6423C16.4796 14.7215 15.6988 13.5441 15.3103 12.2203H14.6609C15.1009 13.7747 16.045 15.1418 17.3231 16.1663C15.8752 17.2599 14.0159 17.9173 11.9887 17.9173C7.36791 17.9173 3.62206 14.5017 3.62206 10.2883C3.62206 6.07483 7.36791 2.65927 11.9888 2.65927ZM22.472 8.04827C21.4667 8.04827 20.4887 8.85345 20.4887 10.3653C20.4887 11.3678 21.017 12.0293 22.0561 12.0293C22.35 12.0294 22.8181 11.9193 22.8181 11.9193L22.973 11.0433C22.973 11.0433 22.5459 11.2413 22.2526 11.2413C21.6349 11.2413 21.387 10.806 21.387 10.3383C21.387 9.38939 21.9185 8.86724 22.5102 8.86724C22.9539 8.86724 23.3103 9.09726 23.3103 9.09726L23.4522 8.24526C23.4522 8.24526 22.9247 8.04827 22.472 8.04827H22.472ZM30.9239 8.12228L30.0496 8.12427L29.8618 9.17828C29.8618 9.17828 29.5331 8.76926 29.0191 8.76926C28.22 8.76926 27.5543 9.63902 27.5543 10.6393C27.5543 11.2849 27.9086 11.9183 28.6349 11.9183C29.1574 11.9183 29.447 11.5893 29.447 11.5893L29.4088 11.8703H30.2581L30.9239 8.12228ZM5.88155 8.13326L5.18516 11.8903H6.02455L6.55506 9.05729L6.63365 11.8903H7.23399L8.35393 9.05729L7.85727 11.8903H8.74906L9.43675 8.13326H8.05703L7.19797 10.4383L7.15323 8.13329H5.88158L5.88155 8.13326ZM14.6511 8.37726C14.6321 8.3947 14.1435 10.9759 14.1435 11.2903C14.1435 11.7557 14.4283 11.9636 14.829 11.9603C15.1161 11.958 15.3385 11.8919 15.4414 11.8643C15.4521 11.8616 15.473 11.8563 15.473 11.8563L15.5811 11.1843C15.5223 11.1843 15.4358 11.2073 15.3595 11.2073C15.0603 11.2073 15.0272 11.0615 15.0462 10.9533L15.2875 9.58228H15.7426L15.8529 8.83924H15.4239L15.5112 8.37726H14.6511ZM24.797 8.75527C24.2112 8.75527 23.7622 8.93227 23.7622 8.93227L23.6378 9.62228C23.6378 9.62228 24.0086 9.48126 24.5689 9.48126C24.887 9.48126 25.1201 9.5146 25.1201 9.75726C25.1201 9.90465 25.0917 9.95928 25.0917 9.95928C25.0917 9.95928 24.8402 9.93927 24.7239 9.93927C23.9851 9.93927 23.2088 10.2359 23.2088 11.1283C23.2088 11.8314 23.7184 11.9923 24.034 11.9923C24.6368 11.9923 24.8968 11.6254 24.9106 11.6243L24.8822 11.9303H25.6343L25.9705 9.72228C25.9706 8.78539 25.0995 8.75524 24.797 8.75524V8.75527ZM10.6887 8.75927C10.1007 8.75927 9.64958 8.93627 9.64958 8.93627L9.52516 9.62628C9.52516 9.62628 9.89716 9.48526 10.4595 9.48526C10.7788 9.48526 11.0129 9.51873 11.0129 9.76126C11.0129 9.90859 10.9845 9.96327 10.9845 9.96327C10.9845 9.96327 10.7323 9.94327 10.6156 9.94327C9.87396 9.94327 9.0951 10.2394 9.0951 11.1313C9.0951 11.834 9.6057 11.9953 9.92248 11.9953C10.5275 11.9953 10.7884 11.6284 10.8023 11.6273L10.7739 11.9333H11.5292L11.8665 9.72628C11.8665 8.78993 10.9923 8.75924 10.6887 8.75924V8.75927ZM13.3565 8.75927C12.7251 8.75927 12.0837 8.99278 12.0837 9.79028C12.0837 10.6939 13.1524 10.6026 13.1524 10.9832C13.1524 11.2373 12.8542 11.2583 12.6241 11.2583C12.2259 11.2583 11.8678 11.1322 11.8665 11.1383L11.7519 11.8283C11.7725 11.8341 11.9943 11.9253 12.7103 11.9253C12.9026 11.9253 14.0016 11.97 14.0016 10.9213C14.0016 9.94081 12.9843 10.1351 12.9843 9.74126C12.9843 9.54516 13.1494 9.48327 13.4525 9.48327C13.5729 9.48327 14.0366 9.51828 14.0366 9.51828L14.1435 8.82126C14.1435 8.82135 13.8443 8.75927 13.3565 8.75927H13.3565ZM17.3035 8.75927C16.4261 8.75943 15.7765 9.62382 15.7765 10.6003C15.7765 11.7273 16.5904 11.9953 17.2839 11.9953C17.924 11.9953 18.2062 11.8643 18.2062 11.8643L18.3591 11.0953C18.3591 11.0953 17.8721 11.2913 17.4323 11.2913C16.4953 11.2913 16.6595 10.6523 16.6595 10.6523H18.4333C18.4333 10.6523 18.5479 10.1359 18.5479 9.92526C18.5479 9.39982 18.2617 8.75927 17.3036 8.75927H17.3035ZM20.4811 8.79227C20.0858 8.79227 19.7923 9.27927 19.7923 9.27927L19.8708 8.83227H19.05L18.4988 11.9183H19.4059C19.6628 10.6005 19.7097 9.53041 20.3228 9.72628C20.4301 9.2162 20.5342 9.01915 20.6513 8.80328C20.6513 8.80328 20.5963 8.79227 20.481 8.79227H20.4811ZM27.8304 8.79227C27.4352 8.79227 27.1417 9.27927 27.1417 9.27927L27.2203 8.83227H26.3994L25.8482 11.9183H26.7542C27.0112 10.6005 27.0593 9.53041 27.6722 9.72628C27.7797 9.2162 27.8837 9.01915 28.0007 8.80328C28.0007 8.80328 27.9457 8.79227 27.8305 8.79227H27.8304ZM17.2992 9.45527C17.7975 9.45527 17.7063 9.9706 17.7063 10.0123H16.725C16.725 9.95908 16.8179 9.45527 17.2992 9.45527H17.2992ZM29.1567 9.51528C29.4739 9.51518 29.637 9.71147 29.637 10.1733C29.637 10.5923 29.4063 11.1523 28.9285 11.1523C28.6114 11.1523 28.4624 10.9124 28.4624 10.5363C28.4624 9.92129 28.7695 9.51528 29.1567 9.51528H29.1567ZM24.7981 10.5653C24.9275 10.5654 24.9542 10.5769 24.976 10.5823C24.9729 10.5818 24.9723 10.5823 24.9848 10.5843C25.0012 10.7217 24.8941 11.3663 24.3768 11.3663C24.11 11.3663 24.0417 11.1719 24.0417 11.0573C24.0417 10.8336 24.1688 10.5653 24.7981 10.5653ZM10.6898 10.5683C10.8368 10.5684 10.8528 10.5835 10.8776 10.5873C10.894 10.7247 10.7866 11.3683 10.2674 11.3683C9.9996 11.3683 9.93013 11.1749 9.93013 11.0603C9.93013 10.8368 10.058 10.5683 10.6898 10.5683Z" fill="#333333"/>
</svg>
