<svg width="35" height="22" viewBox="0 0 35 22" fill="none" xmlns="http://www.w3.org/2000/svg">
<path d="M1.39718 0.952148C0.625694 0.952148 0 1.5252 0 2.23215V19.7681C0 20.4751 0.626008 21.0481 1.39718 21.0481H33.5324C34.3039 21.0481 34.9296 20.4751 34.9296 19.7681V2.23215C34.9296 1.52524 34.3036 0.952148 33.5324 0.952148H1.39718ZM20.8617 6.94114C21.7118 6.94114 22.3931 7.11317 22.8276 7.27314L22.5307 8.98415L22.3342 8.89314C21.9295 8.73317 21.4096 8.57922 20.6925 8.59013C19.8341 8.59013 19.4372 8.94095 19.4372 9.26917C19.4322 9.639 19.9009 9.8829 20.6674 10.2481C21.9324 10.8117 22.5171 11.4949 22.5089 12.3931C22.4918 14.0321 20.9956 15.0912 18.6906 15.0912C17.7072 15.0812 16.7598 14.8905 16.2477 14.6701L16.5555 12.9021L16.8383 13.0281C17.5584 13.3229 18.0247 13.4422 18.9024 13.4422C19.5326 13.4422 20.209 13.2004 20.2144 12.6712C20.2185 12.3256 19.9317 12.0792 19.0781 11.6921C18.2463 11.3144 17.1437 10.6817 17.1559 9.54716C17.1689 8.0124 18.695 6.94114 20.8617 6.94114ZM3.08907 7.19215H6.62897C7.10565 7.20866 7.49051 7.34927 7.62338 7.82316L8.38638 11.4312C8.38649 11.4315 8.38624 11.4328 8.38638 11.4331L8.61559 12.5142L10.7648 7.19215H13.0899L9.634 14.9822L7.31118 14.9841L5.46211 8.69813C6.56232 9.23212 7.499 9.84994 8.04145 10.7001C7.90159 10.4311 7.71731 10.1274 7.4815 9.82815C7.20688 9.4796 6.61381 9.02959 6.36592 8.83813C5.50211 8.17103 4.329 7.63224 3.06179 7.34716L3.08907 7.19215ZM14.0144 7.20114H16.2881L14.8658 14.9792H12.5921L14.0144 7.20114ZM26.8565 7.20114H28.579L30.3822 14.9792H28.3148C28.3148 14.9792 28.1097 14.0856 28.043 13.8131C27.7181 13.8131 25.4454 13.8102 25.1897 13.8102C25.1032 14.0207 24.7203 14.9791 24.7203 14.9791H22.3811L25.6896 7.84716C25.9239 7.34034 26.3231 7.20114 26.8565 7.20114ZM27.0257 9.29314C26.9138 9.58245 26.719 10.0497 26.732 10.0291C26.732 10.0291 26.0321 11.7392 25.849 12.1832L27.6882 12.1821C27.5996 11.7965 27.1752 9.9572 27.1752 9.9572L27.0257 9.2932V9.29314Z" fill="#333333"/>
</svg>
