<svg width="20" height="19" viewBox="0 0 20 19" fill="none" xmlns="http://www.w3.org/2000/svg">
<path d="M9.99998 1.59499C8.91038 0.593091 7.48419 0.0370339 6.00398 0.0369873C5.22052 0.037803 4.44495 0.193547 3.72192 0.495256C2.99888 0.796965 2.34265 1.23868 1.79098 1.79499C-0.562019 4.15799 -0.561019 7.85399 1.79298 10.207L9.12498 17.539C9.29498 17.838 9.62298 18.031 9.99998 18.031C10.1548 18.0295 10.3071 17.9917 10.4446 17.9207C10.5822 17.8496 10.7011 17.7473 10.792 17.622L18.207 10.207C20.561 7.85299 20.561 4.15799 18.205 1.79099C17.6536 1.2357 16.9979 0.794884 16.2756 0.49387C15.5532 0.192857 14.7785 0.0375869 13.996 0.0369873C12.5158 0.0372293 11.0897 0.59326 9.99998 1.59499ZM16.791 3.20499C18.354 4.77599 18.355 7.22999 16.793 8.79299L9.99998 15.586L3.20698 8.79299C1.64498 7.22999 1.64598 4.77599 3.20498 3.20899C3.96498 2.45299 4.95898 2.03699 6.00398 2.03699C7.04898 2.03699 8.03898 2.45299 8.79298 3.20699L9.29298 3.70699C9.38577 3.79993 9.49597 3.87367 9.61729 3.92398C9.7386 3.97429 9.86865 4.00019 9.99998 4.00019C10.1313 4.00019 10.2614 3.97429 10.3827 3.92398C10.504 3.87367 10.6142 3.79993 10.707 3.70699L11.207 3.20699C12.719 1.69799 15.281 1.70199 16.791 3.20499Z" fill="black"/>
</svg>
