<svg width="20" height="16" viewBox="0 0 20 16" fill="none" xmlns="http://www.w3.org/2000/svg">
<path d="M17.633 3.99701C17.646 4.17201 17.646 4.34601 17.646 4.52001C17.646 9.84501 13.593 15.981 6.186 15.981C3.904 15.981 1.784 15.32 0 14.172C0.324 14.209 0.636 14.222 0.973 14.222C2.78599 14.2264 4.54765 13.6202 5.974 12.501C5.13342 12.4858 4.31858 12.2085 3.64324 11.7077C2.9679 11.207 2.46578 10.5079 2.207 9.70801C2.456 9.74501 2.706 9.77001 2.968 9.77001C3.329 9.77001 3.692 9.72001 4.029 9.63301C3.11676 9.44883 2.29647 8.95436 1.70762 8.2337C1.11876 7.51303 0.797693 6.61066 0.799 5.68001V5.63001C1.336 5.92901 1.959 6.11601 2.619 6.14101C2.06609 5.7736 1.61272 5.27504 1.29934 4.6898C0.98596 4.10457 0.822313 3.45087 0.823 2.78701C0.823 2.03901 1.022 1.35301 1.371 0.755013C2.38314 2.00003 3.6455 3.01857 5.07634 3.74467C6.50717 4.47077 8.07456 4.88823 9.677 4.97001C9.615 4.67001 9.577 4.35901 9.577 4.04701C9.57674 3.51797 9.68075 2.99407 9.88308 2.50525C10.0854 2.01643 10.3821 1.57229 10.7562 1.1982C11.1303 0.824114 11.5744 0.527424 12.0632 0.325091C12.5521 0.122758 13.076 0.0187501 13.605 0.0190129C14.765 0.0190129 15.812 0.505013 16.548 1.29101C17.4498 1.11663 18.3145 0.787435 19.104 0.318013C18.8034 1.24883 18.1738 2.03812 17.333 2.53801C18.1328 2.44679 18.9144 2.23647 19.652 1.91401C19.1011 2.71711 18.4185 3.42136 17.633 3.99701Z" fill="black"/>
</svg>
